<svg xmlns="http://www.w3.org/2000/svg" version="1.1" xmlns:xlink="http://www.w3.org/1999/xlink" xmlns:svgjs="http://svgjs.dev/svgjs" width="1000" height="1000" viewBox="0 0 1000 1000"><rect width="1000" height="1000" fill="#ffffff"></rect><g transform="matrix(0.7,0,0,0.7,149.57575757575756,378.5353643717665)"><svg viewBox="0 0 396 138" data-background-color="#ffffff" preserveAspectRatio="xMidYMid meet" height="348" width="1000" xmlns="http://www.w3.org/2000/svg" xmlns:xlink="http://www.w3.org/1999/xlink"><g id="tight-bounds" transform="matrix(1,0,0,1,0.2400000000000091,-0.18998474262636478)"><svg viewBox="0 0 395.52 138.3799694852527" height="138.3799694852527" width="395.52"><g><svg viewBox="0 0 654.4949067761753 228.9871188004158" height="138.3799694852527" width="395.52"><g transform="matrix(1,0,0,1,258.9749067761753,65.16131807504098)"><svg viewBox="0 0 395.52 98.66448265033384" height="98.66448265033384" width="395.52"><g id="textblocktransform"><svg viewBox="0 0 395.52 98.66448265033384" height="98.66448265033384" width="395.52" id="textblock"><g><svg viewBox="0 0 395.52 63.51299576356667" height="63.51299576356667" width="395.52"><g transform="matrix(1,0,0,1,0,0)"><svg width="395.52" viewBox="2.25 -37.70000076293945 242.02000427246094 38.87000274658203" height="63.51299576356667" data-palette-color="#35185a"><path d="M36.91-0.15L36.91-0.15Q36.67 0.1 36.38 0.15 36.08 0.2 35.79 0.2L35.79 0.2Q35.06 0.54 34.23 0.54L34.23 0.54Q33.69 0.24 33.64 0.34 33.59 0.44 33.45 0.54L33.45 0.54Q32.71 0.88 32.13 0.9 31.54 0.93 31.15 1.17L31.15 1.17Q30.76 0.88 30.74 0.32 30.71-0.24 30.62-0.63L30.62-0.63Q30.37-0.98 30.27-1.49 30.18-2 30.13-2.54 30.08-3.08 30-3.59 29.93-4.1 29.74-4.49L29.74-4.49Q29.69-4.74 29.71-4.93 29.74-5.13 29.64-5.37L29.64-5.37Q29.69-6.2 29.59-6.69 29.49-7.18 29.39-7.71L29.39-7.71Q29.35-8.01 29.35-8.37 29.35-8.74 29.05-8.94L29.05-8.94Q29.2-9.62 29.1-9.96 29-10.3 28.96-10.6L28.96-10.6Q28.91-10.99 28.91-11.45 28.91-11.91 28.81-12.3L28.81-12.3Q28.52-14.65 28.17-16.99 27.83-19.34 27.54-21.68L27.54-21.68Q27.25-21.44 27.12-20.95 27-20.46 26.9-20.07L26.9-20.07Q26.61-19.19 26.37-18.26 26.12-17.33 25.88-16.46L25.88-16.46Q25.78-16.06 25.71-15.55 25.63-15.04 25.49-14.65L25.49-14.65Q25-13.23 24.63-12.21 24.27-11.18 23.93-10.11L23.93-10.11Q23.83-9.52 23.73-8.98 23.63-8.45 23.54-7.91L23.54-7.91Q23.49-7.62 23.39-7.08 23.29-6.54 23.19-6.3L23.19-6.3Q23.1-6.05 23.02-5.96 22.95-5.86 23-5.62L23-5.62Q22.51-4.88 22.34-4 22.17-3.13 21.73-2.29L21.73-2.29Q21.73-1.71 21.29-1.27L21.29-1.27Q21.04-1.22 20.83-1.17 20.61-1.12 20.36-0.98L20.36-0.98Q20.12-1.07 19.8-1.1 19.48-1.12 19.19-1.12L19.19-1.12Q18.95-1.17 18.75-1.29 18.55-1.42 18.31-1.46L18.31-1.46Q18.07-1.76 17.77-1.98 17.48-2.2 17.19-2.44L17.19-2.44Q16.89-3.17 16.65-3.42L16.65-3.42Q16.5-3.96 16.26-4.42 16.02-4.88 15.92-5.47L15.92-5.47Q15.77-6.01 15.55-6.47 15.33-6.93 15.09-7.47L15.09-7.47Q14.99-7.81 14.87-8.13 14.75-8.45 14.6-8.79L14.6-8.79Q14.55-9.18 14.33-9.77 14.11-10.35 14.01-10.79L14.01-10.79Q14.01-10.84 13.84-11.3 13.67-11.77 13.5-12.3 13.33-12.84 13.16-13.28 12.99-13.72 12.94-13.77L12.94-13.77Q12.84-14.01 12.77-14.23 12.7-14.45 12.6-14.75L12.6-14.75Q12.4-15.38 12.11-16.04 11.82-16.7 11.52-17.29L11.52-17.29Q11.28-17.77 11.18-18.24 11.08-18.7 10.94-19.14L10.94-19.14Q10.84-19.38 10.77-19.58 10.69-19.78 10.6-20.02L10.6-20.02Q10.5-20.31 10.4-20.63 10.3-20.95 10.21-21.29L10.21-21.29Q9.96-21.19 9.99-20.87 10.01-20.56 9.96-20.31L9.96-20.31Q9.86-19.78 9.86-19.26 9.86-18.75 9.81-18.21L9.81-18.21Q9.72-17.63 9.62-17.09 9.52-16.55 9.47-16.02L9.47-16.02Q9.47-14.7 9.33-13.38L9.33-13.38Q9.23-12.21 9.08-11.01 8.94-9.81 8.89-8.54L8.89-8.54Q8.89-7.62 8.69-6.71 8.5-5.81 8.59-4.83L8.59-4.83Q8.5-4.64 8.5-4.54 8.5-4.44 8.5-4.25L8.5-4.25Q8.5-4 8.47-3.71 8.45-3.42 8.45-3.17L8.45-3.17Q8.45-2.73 8.54-2.59L8.54-2.59Q8.4-2.15 8.4-1.64 8.4-1.12 8.4-0.63L8.4-0.63Q8.3-0.44 8.28-0.24 8.25-0.05 8.11 0.15L8.11 0.15Q8.15 0.98 7.62 0.98L7.62 0.98Q7.47 0.98 7.3 0.9 7.13 0.83 7.03 0.68L7.03 0.68Q6.49 0.73 6.42 0.44 6.35 0.15 6.1 0.2L6.1 0.2Q5.52 0.44 5.44 0.34 5.37 0.24 5.13 0.29L5.13 0.29Q4.74-0.1 4.61-0.05 4.49 0 4.39 0L4.39 0Q3.96-0.15 3.91-0.07 3.86 0 3.71 0L3.71 0Q3.47-0.24 3.05-0.24 2.64-0.24 2.34-0.29L2.34-0.29Q2.29-0.49 2.27-0.66 2.25-0.83 2.25-1.07L2.25-1.07Q2.25-1.37 2.27-1.64 2.29-1.9 2.29-2.2L2.29-2.2Q2.29-2.44 2.27-2.71 2.25-2.98 2.25-3.32L2.25-3.32Q2.25-3.66 2.29-3.98 2.34-4.3 2.34-4.69L2.34-4.69Q2.34-4.83 2.29-4.96 2.25-5.08 2.25-5.27L2.25-5.27Q2.54-5.91 2.51-6.27 2.49-6.64 2.54-6.98L2.54-6.98Q2.64-7.81 2.71-8.62 2.78-9.42 2.88-10.25L2.88-10.25Q2.88-11.62 2.95-12.52 3.03-13.43 3.17-14.36L3.17-14.36Q3.27-14.79 3.34-15.19 3.42-15.58 3.52-16.02L3.52-16.02Q3.61-16.75 3.64-17.55 3.66-18.36 3.76-19.14L3.76-19.14Q3.86-20.36 4-21.56 4.15-22.75 4.25-23.93L4.25-23.93Q4.35-24.85 4.47-25.76 4.59-26.66 4.59-27.49L4.59-27.49Q4.59-27.93 4.71-28.61 4.83-29.3 4.88-29.79L4.88-29.79Q4.98-30.96 5.05-32.08 5.13-33.2 5.13-34.33L5.13-34.33 5.13-34.86Q5.13-34.96 5.22-35.06 5.32-35.16 5.32-35.4L5.32-35.4Q5.32-35.84 5.54-36.01 5.76-36.18 5.91-36.57L5.91-36.57Q6.15-36.57 6.47-36.52 6.79-36.47 6.93-36.23L6.93-36.23Q7.28-36.33 7.62-36.33 7.96-36.33 8.2-36.57L8.2-36.57Q8.5-36.57 8.64-36.43 8.79-36.28 9.03-36.18L9.03-36.18Q9.23-36.28 9.42-36.35 9.62-36.43 9.81-36.52L9.81-36.52Q9.96-36.43 10.03-36.3 10.11-36.18 10.25-36.13L10.25-36.13Q10.99-36.33 11.23-36.18L11.23-36.18Q11.33-35.99 11.35-35.79 11.38-35.6 11.43-35.4L11.43-35.4Q11.91-34.91 12.06-34.3 12.21-33.69 12.6-33.2L12.6-33.2Q12.7-32.91 12.82-32.62 12.94-32.32 13.04-31.93L13.04-31.93 13.18-31.35Q13.38-30.86 13.67-30.18L13.67-30.18Q13.92-29.25 14.11-28.27 14.31-27.29 14.75-26.46L14.75-26.46Q14.79-26.17 14.92-25.76 15.04-25.34 15.14-25.05L15.14-25.05Q15.48-24.22 15.84-23.41 16.21-22.61 16.5-21.68L16.5-21.68Q16.8-20.75 17.02-19.78 17.24-18.8 17.58-17.87L17.58-17.87Q17.87-16.99 18.02-16.6 18.16-16.21 18.41-15.82L18.41-15.82Q18.41-15.67 18.48-15.33 18.55-14.99 18.7-14.62 18.85-14.26 18.99-13.94 19.14-13.62 19.29-13.57L19.29-13.57Q19.43-13.67 19.46-13.87 19.48-14.06 19.63-14.21L19.63-14.21Q19.68-14.75 19.8-15.53 19.92-16.31 20.17-16.8L20.17-16.8Q20.17-17.04 20.29-17.7 20.41-18.36 20.61-19.12 20.8-19.87 20.97-20.51 21.14-21.14 21.29-21.29L21.29-21.29Q21.39-21.92 21.46-22.07 21.53-22.22 21.63-22.31L21.63-22.31Q21.68-22.71 21.83-23.05 21.97-23.39 22.02-23.78L22.02-23.78Q22.12-24.61 22.27-25.15 22.41-25.68 22.66-26.46L22.66-26.46Q22.85-27.15 23.02-27.86 23.19-28.56 23.44-29.25L23.44-29.25Q24.02-31.1 24.49-32.54 24.95-33.98 25.63-35.35L25.63-35.35Q25.78-35.79 25.88-35.89 25.98-35.99 26.07-36.08L26.07-36.08Q26.46-36.23 26.88-36.23 27.29-36.23 27.73-36.18L27.73-36.18Q28.22-36.38 28.47-36.62L28.47-36.62Q28.66-36.38 29.05-36.38L29.05-36.38Q29.54-36.38 29.74-36.67L29.74-36.67Q29.93-36.57 30.05-36.62 30.18-36.67 30.42-36.57L30.42-36.57Q30.52-36.67 30.66-36.79 30.81-36.91 30.96-36.91L30.96-36.91Q31.35-36.43 31.57-36.16 31.79-35.89 31.88-35.55L31.88-35.55Q32.03-35.11 32.06-34.59 32.08-34.08 32.32-33.64L32.32-33.64Q32.28-33.01 32.4-31.71 32.52-30.42 32.69-28.98 32.86-27.54 33.06-26.32 33.25-25.1 33.4-24.8L33.4-24.8Q33.35-24.17 33.45-23.73 33.54-23.29 33.54-22.85L33.54-22.85Q33.54-22.71 33.59-22.24 33.64-21.78 33.69-21.26 33.74-20.75 33.81-20.29 33.89-19.82 33.94-19.63L33.94-19.63Q33.94-18.75 34.23-18.26L34.23-18.26Q34.47-17.04 34.64-15.82 34.81-14.6 34.96-13.33L34.96-13.33Q35.06-12.7 35.08-12.11 35.11-11.52 35.21-10.89L35.21-10.89Q35.25-10.64 35.33-10.4 35.4-10.16 35.45-9.91L35.45-9.91Q35.55-9.42 35.6-8.98 35.64-8.54 35.74-8.11L35.74-8.11Q35.79-7.86 35.89-7.59 35.99-7.32 35.89-7.03L35.89-7.03Q35.99-6.69 35.96-6.3 35.94-5.91 36.13-5.62L36.13-5.62Q36.13-4.59 36.28-3.81L36.28-3.81Q36.33-3.22 36.57-2.64L36.57-2.64Q36.67-2.05 36.74-1.42 36.82-0.78 36.91-0.15ZM64.84-19.38L64.84-19.38Q64.74-19.19 64.65-19.02 64.55-18.85 64.5-18.65L64.5-18.65Q64.69-18.46 64.87-18.24 65.04-18.02 65.04-17.77L65.04-17.77Q65.04-17.58 64.96-17.41 64.89-17.24 64.94-17.09L64.94-17.09Q64.74-16.75 64.52-16.46 64.3-16.16 64.21-15.82L64.21-15.82Q64.01-15.63 63.89-15.43 63.77-15.23 63.67-15.04L63.67-15.04Q63.43-14.94 63.35-14.72 63.28-14.5 63.08-14.36L63.08-14.36Q63.03-14.16 62.6-13.43 62.16-12.7 61.62-11.87 61.08-11.04 60.59-10.25 60.1-9.47 59.91-9.23L59.91-9.23Q59.81-8.98 59.69-8.84 59.57-8.69 59.42-8.5L59.42-8.5Q59.32-8.35 59.27-8.18 59.23-8.01 59.13-7.91L59.13-7.91Q59.03-7.71 58.91-7.57 58.79-7.42 58.69-7.18L58.69-7.18Q58.2-6.54 57.71-5.66 57.22-4.79 56.78-4.1L56.78-4.1Q56.54-3.71 56.32-3.32 56.1-2.93 55.86-2.54L55.86-2.54Q55.61-2.15 55.37-1.81 55.12-1.46 54.88-1.07L54.88-1.07Q54.49-0.78 54.2-0.37 53.9 0.05 53.51 0.34L53.51 0.34Q52.88 0.34 52.73-0.24L52.73-0.24Q52.1-0.39 52.1-0.24 52.1-0.1 52.1 0L52.1 0Q51.9 0.1 51.83 0.29 51.76 0.49 51.56 0.59L51.56 0.59Q51.17 0.49 50.9 0.27 50.63 0.05 50.14 0.1L50.14 0.1Q49.95-0.2 49.7-0.42 49.46-0.63 49.27-0.88L49.27-0.88Q49.17-1.17 49-1.37 48.83-1.56 48.68-1.76L48.68-1.76Q48.53-2 48.39-2.2 48.24-2.39 48.09-2.59L48.09-2.59Q47.75-3.03 47.43-3.44 47.12-3.86 46.87-4.3L46.87-4.3Q46.48-4.88 46.12-5.49 45.75-6.1 45.36-6.69L45.36-6.69Q45.16-6.98 44.97-7.28 44.77-7.57 44.63-7.86L44.63-7.86Q44.53-8.11 44.36-8.45 44.19-8.79 43.94-8.89L43.94-8.89Q43.85-9.28 43.6-9.47 43.36-9.67 43.11-9.96L43.11-9.96Q42.77-10.35 42.48-10.82 42.19-11.28 41.89-11.77L41.89-11.77Q40.92-13.13 40.06-14.45 39.21-15.77 38.38-17.19L38.38-17.19Q38.62-17.97 38.62-18.36 38.62-18.75 38.86-18.99L38.86-18.99Q38.86-19.19 38.96-19.58L38.96-19.58Q39.6-20.65 40.18-21.53L40.18-21.53Q40.72-22.36 40.94-22.9 41.16-23.44 41.4-24.02L41.4-24.02Q41.65-24.17 41.79-24.39 41.94-24.61 42.19-24.8L42.19-24.8Q42.28-25.34 42.62-25.71 42.97-26.07 43.06-26.61L43.06-26.61Q43.5-26.95 43.55-27.39L43.55-27.39Q44.19-27.83 44.33-28.56L44.33-28.56Q44.72-28.96 44.99-29.44 45.26-29.93 45.51-30.47L45.51-30.47Q46.09-30.96 46.43-31.74L46.43-31.74Q46.73-31.93 46.87-32.28 47.02-32.62 47.26-32.86L47.26-32.86Q47.65-33.5 47.87-33.91 48.09-34.33 48.34-34.77L48.34-34.77Q48.68-34.77 48.78-35.01 48.87-35.25 49.17-35.21L49.17-35.21Q49.17-35.64 49.41-35.99L49.41-35.99Q49.51-36.04 49.7-36.11 49.9-36.18 49.9-36.28L49.9-36.28Q49.8-36.87 49.95-36.96 50.1-37.06 50.19-37.16L50.19-37.16Q50.73-37.06 50.93-37.01 51.12-36.96 51.56-36.67L51.56-36.67Q52.05-36.67 52.24-36.47 52.44-36.28 52.68-36.18L52.68-36.18Q52.88-35.99 53-35.79 53.12-35.6 53.37-35.5L53.37-35.5Q53.76-34.96 54.2-34.33 54.64-33.69 55.03-33.15L55.03-33.15Q55.56-32.42 56.13-31.76 56.69-31.1 57.18-30.32L57.18-30.32Q57.32-30.08 57.71-29.47 58.1-28.86 58.59-28.17 59.08-27.49 59.47-26.93 59.86-26.37 60.01-26.27L60.01-26.27Q60.15-26.03 60.64-25.34 61.13-24.66 61.69-23.9 62.25-23.14 62.79-22.46 63.33-21.78 63.52-21.58L63.52-21.58Q64.06-20.85 64.33-20.39 64.6-19.92 64.84-19.38ZM53.66-10.21L53.66-10.21Q54.2-10.94 54.49-11.52 54.78-12.11 55.08-12.7L55.08-12.7Q55.56-13.28 55.66-13.53 55.76-13.77 55.91-14.01L55.91-14.01Q56.3-14.6 56.71-15.19 57.13-15.77 57.37-16.46L57.37-16.46Q57.66-16.65 57.81-16.94 57.96-17.24 58.25-17.48L58.25-17.48Q57.96-18.51 57.57-19.07 57.18-19.63 56.78-20.17L56.78-20.17Q56.64-20.41 56.49-20.65 56.35-20.9 56.2-21.14L56.2-21.14Q56-21.29 55.88-21.44 55.76-21.58 55.61-21.73L55.61-21.73Q55.52-21.97 55.32-22.36L55.32-22.36Q55.12-22.61 54.93-22.8 54.73-23 54.59-23.29L54.59-23.29Q54.39-23.49 54.1-23.83 53.81-24.17 53.49-24.58 53.17-25 52.93-25.37 52.68-25.73 52.54-25.98L52.54-25.98Q52.44-26.22 52.37-26.39 52.29-26.56 52.19-26.76L52.19-26.76Q51.95-27.1 51.71-27.37 51.46-27.64 51.22-27.98L51.22-27.98Q51.07-27.88 50.95-27.86 50.83-27.83 50.73-27.73L50.73-27.73Q50.39-27.1 49.97-26.56 49.56-26.03 49.17-25.39L49.17-25.39Q48.83-24.8 48.48-24.19 48.14-23.58 47.8-23L47.8-23Q47.56-22.66 47.34-22.34 47.12-22.02 46.87-21.63L46.87-21.63Q46.63-21.29 46.46-20.92 46.29-20.56 46.04-20.21L46.04-20.21Q45.65-19.73 45.41-19.34 45.16-18.95 44.92-18.41L44.92-18.41Q45.07-18.12 45.38-17.6 45.7-17.09 46.04-16.58 46.38-16.06 46.65-15.63 46.92-15.19 46.97-15.04L46.97-15.04Q47.36-14.7 47.6-14.28 47.85-13.87 48.24-13.48L48.24-13.48Q48.44-13.09 48.68-12.79 48.92-12.5 49.17-12.16L49.17-12.16Q49.41-11.82 49.8-11.16 50.19-10.5 50.58-9.81 50.97-9.13 51.36-8.54 51.76-7.96 52-7.81L52-7.81Q52.49-8.35 52.81-9.01 53.12-9.67 53.66-10.21ZM87.93-34.91L87.93-34.91Q87.84-34.72 87.86-34.52 87.89-34.33 87.89-34.08L87.89-34.08Q87.79-33.5 87.89-33.5 87.98-33.5 87.98-33.4L87.98-33.4 87.64-32.91Q87.64-32.62 87.52-32.37 87.4-32.13 87.45-31.79L87.45-31.79Q87.3-31.54 87.18-31.3 87.06-31.05 86.81-30.81L86.81-30.81 86.18-30.81Q85.64-30.81 85.03-30.74 84.42-30.66 83.83-30.66L83.83-30.66Q83.74-30.66 83.59-30.69 83.44-30.71 83.3-30.71L83.3-30.71Q83.2-30.71 83.05-30.69 82.91-30.66 82.71-30.66L82.71-30.66Q81.98-30.66 81.27-30.74 80.56-30.81 79.78-30.81L79.78-30.81Q79.58-30.81 79.39-30.81 79.19-30.81 78.95-30.76L78.95-30.76Q78.9-29.93 78.88-29.08 78.85-28.22 78.85-27.34L78.85-27.34Q78.85-27.1 78.8-26.83 78.75-26.56 78.75-26.32L78.75-26.32Q78.71-25.68 78.68-25.1 78.66-24.51 78.66-23.88L78.66-23.88Q78.66-22.51 78.68-21.14 78.71-19.78 78.75-18.36L78.75-18.36Q78.8-17.63 78.85-16.94 78.9-16.26 78.9-15.53L78.9-15.53Q78.9-13.87 78.85-12.23 78.8-10.6 78.8-8.94L78.8-8.94Q78.8-8.4 78.75-7.93 78.71-7.47 78.71-6.93L78.71-6.93Q78.71-5.81 78.75-4.69 78.8-3.56 78.8-2.44L78.8-2.44Q78.8-1.9 78.78-1.37 78.75-0.83 78.75-0.29L78.75-0.29Q78.51 0.1 78.41 0.39 78.32 0.68 77.83 0.68L77.83 0.68Q77.49 0.59 77.51 0.46 77.53 0.34 77.44 0.24L77.44 0.24Q77 0.2 76.78 0.32 76.56 0.44 76.26 0.54L76.26 0.54Q76.12 0.49 75.95 0.49 75.78 0.49 75.63 0.49L75.63 0.49Q75.53 0.49 75.43 0.56 75.34 0.63 75 0.63L75 0.63Q74.7 0.68 74.65 0.54 74.6 0.39 74.36 0.39L74.36 0.39Q74.12 0.54 73.8 0.61 73.48 0.68 73.19 0.68L73.19 0.68Q72.9 0.49 72.92 0.32 72.94 0.15 72.85-0.05L72.85-0.05Q72.8-0.15 72.68-0.32 72.55-0.49 72.46-0.59L72.46-0.59Q72.55-1.27 72.6-1.81 72.65-2.34 72.65-2.98L72.65-2.98Q72.65-4.25 72.55-5.47 72.46-6.69 72.46-7.96L72.46-7.96Q72.46-8.35 72.55-8.79 72.65-9.23 72.65-9.72L72.65-9.72Q72.55-10.11 72.6-10.18 72.65-10.25 72.65-10.35L72.65-10.35Q72.65-10.64 72.63-10.94 72.6-11.23 72.6-11.52L72.6-11.52Q72.6-12.11 72.63-12.7 72.65-13.28 72.65-13.87L72.65-13.87Q72.65-14.11 72.63-14.38 72.6-14.65 72.6-14.89L72.6-14.89Q72.55-15.33 72.58-15.82 72.6-16.31 72.6-16.8L72.6-16.8Q72.6-19.14 72.53-21.44 72.46-23.73 72.46-26.07L72.46-26.07Q72.46-27.2 72.58-28.37 72.7-29.54 72.7-30.71L72.7-30.71Q72.7-30.86 72.6-31.1 72.5-31.35 72.41-31.45L72.41-31.45Q72.16-31.45 71.94-31.47 71.72-31.49 71.48-31.49L71.48-31.49Q70.94-31.49 70.45-31.35L70.45-31.35Q69.53-31.3 68.67-31.23 67.82-31.15 66.94-31.1L66.94-31.1Q66.35-31.15 66.23-31.13 66.11-31.1 65.96-31.1L65.96-31.1Q65.57-31.1 65.38-31.3L65.38-31.3 65.38-31.93Q65.08-32.52 65.13-32.57 65.18-32.62 65.18-32.71L65.18-32.71Q65.18-32.86 64.91-33.03 64.64-33.2 64.64-33.59L64.64-33.59Q64.59-33.98 64.45-34.18 64.3-34.38 64.3-34.57L64.3-34.57Q64.3-34.91 64.45-35.35L64.45-35.35Q64.89-35.6 65.3-35.69 65.72-35.79 66.25-35.94L66.25-35.94Q66.55-36.04 66.79-36.13 67.04-36.23 67.33-36.28L67.33-36.28Q67.67-36.33 68.01-36.33 68.35-36.33 68.7-36.38L68.7-36.38Q69.43-36.52 70.23-36.62 71.04-36.72 71.77-36.72L71.77-36.72Q72.46-36.72 73.14-36.55 73.82-36.38 74.36-36.38L74.36-36.38Q75.14-36.38 75.85-36.28 76.56-36.18 77.34-36.18L77.34-36.18Q77.44-36.18 77.66-36.11 77.88-36.04 78.17-36.04L78.17-36.04 82.91-36.04Q83.3-35.94 83.47-35.99 83.64-36.04 83.78-36.04L83.78-36.04Q84.17-36.04 84.52-35.99 84.86-35.94 85.25-35.94L85.25-35.94Q85.59-35.94 85.79-35.99L85.79-35.99Q86.18-35.94 86.52-35.77 86.86-35.6 87.3-35.6L87.3-35.6Q87.5-35.45 87.59-35.23 87.69-35.01 87.93-34.91ZM110.59-34.57L110.59-34.57Q110.05-33.59 109.37-32.28 108.68-30.96 108.29-29.98L108.29-29.98Q108.15-29.64 108.02-29.32 107.9-29 107.76-28.66L107.76-28.66Q107.51-27.93 107.15-27.27 106.78-26.61 106.49-25.88L106.49-25.88Q106.05-24.9 105.58-23.9 105.12-22.9 104.68-21.83L104.68-21.83Q104.19-20.85 103.92-20.14 103.65-19.43 103.36-18.7 103.07-17.97 102.85-17.26 102.63-16.55 102.48-15.97L102.48-15.97Q102.04-15.19 101.75-14.79L101.75-14.79Q101.65-13.92 101.56-13.04 101.46-12.16 101.46-11.23L101.46-11.23Q101.46-10.79 101.53-10.38 101.6-9.96 101.65-9.52L101.65-9.52Q101.7-8.89 101.68-8.28 101.65-7.67 101.7-7.03L101.7-7.03Q101.75-5.81 101.82-4.61 101.9-3.42 101.95-2.15L101.95-2.15Q101.99-1.27 101.87-0.66 101.75-0.05 101.8 0.59L101.8 0.59Q101.65 0.68 101.48 0.73 101.31 0.78 101.16 0.88L101.16 0.88Q100.63 0.88 100.46 0.85 100.29 0.83 100.14 0.93L100.14 0.93Q99.7 0.63 99.65 0.66 99.6 0.68 99.55 0.68L99.55 0.68Q98.97 0.49 98.92 0.39 98.87 0.29 98.72 0.2L98.72 0.2Q98.19 0.2 97.84 0.34L97.84 0.34Q97.7 0.24 97.6 0.15 97.5 0.05 97.36-0.05L97.36-0.05Q96.92-0.1 96.62-0.17 96.33-0.24 96.14-0.34L96.14-0.34Q95.99-0.73 95.82-1.03 95.65-1.32 95.65-1.81L95.65-1.81Q95.65-2.2 95.74-2.54 95.84-2.88 95.89-3.27L95.89-3.27Q95.89-3.52 95.87-3.71 95.84-3.91 95.84-4.15L95.84-4.15Q95.84-4.39 95.94-4.79L95.94-4.79Q95.79-5.91 95.82-7.15 95.84-8.4 95.84-9.52L95.84-9.52Q95.84-10.64 95.65-11.62L95.65-11.62Q95.7-12.26 95.65-12.52 95.6-12.79 95.6-13.09L95.6-13.09Q95.6-13.33 95.65-13.6 95.7-13.87 95.7-14.11L95.7-14.11Q95.7-14.16 95.62-14.62 95.55-15.09 95.45-15.6 95.35-16.11 95.26-16.58 95.16-17.04 95.16-17.14L95.16-17.14Q94.67-18.02 94.43-18.8 94.18-19.58 93.89-20.12L93.89-20.12Q93.69-20.51 93.5-20.9 93.3-21.29 93.16-21.73L93.16-21.73Q93.06-21.97 92.99-22.27 92.91-22.56 92.81-22.8L92.81-22.8Q92.62-23.19 92.45-23.66 92.28-24.12 92.03-24.41L92.03-24.41Q91.84-24.85 91.67-25.22 91.5-25.59 91.5-25.93L91.5-25.93Q91.35-26.51 91.03-26.98 90.72-27.44 90.47-27.93L90.47-27.93Q90.32-28.22 90.25-28.47 90.18-28.71 90.08-28.96L90.08-28.96Q89.98-29.15 89.81-29.44 89.64-29.74 89.45-29.88L89.45-29.88Q89.35-30.32 89.1-30.66 88.86-31.01 88.76-31.45L88.76-31.45Q88.52-31.79 88.22-32.13L88.22-32.13Q88.03-32.86 87.69-33.47 87.35-34.08 87.05-34.77L87.05-34.77Q87.25-35.79 88.18-36.04L88.18-36.04Q88.66-36.62 88.76-36.67 88.86-36.72 89.2-36.72L89.2-36.72Q89.49-36.96 89.79-37.13 90.08-37.3 90.47-37.21L90.47-37.21Q90.52-37.4 90.74-37.55 90.96-37.7 91.15-37.7L91.15-37.7Q91.45-37.7 91.67-37.4 91.89-37.11 92.13-36.96L92.13-36.96Q92.52-36.28 92.94-35.64 93.35-35.01 93.64-34.33L93.64-34.33Q93.99-33.64 94.26-32.96 94.52-32.28 95.06-31.64L95.06-31.64Q95.31-30.66 95.82-29.81 96.33-28.96 96.67-27.98L96.67-27.98Q96.92-27.39 97.23-26.83 97.55-26.27 97.8-25.63L97.8-25.63Q97.94-25.34 98.04-25.05 98.14-24.76 98.23-24.46L98.23-24.46Q98.33-24.22 98.43-23.83 98.53-23.44 98.67-23.19L98.67-23.19Q99.02-23.54 99.26-24.07L99.26-24.07Q99.6-24.76 99.97-25.37 100.33-25.98 100.63-26.66L100.63-26.66Q101.02-27.29 101.19-27.98 101.36-28.66 101.6-29.35L101.6-29.35Q101.7-29.59 101.82-29.83 101.95-30.08 102.04-30.37L102.04-30.37Q102.19-30.66 102.29-30.96 102.39-31.25 102.48-31.54L102.48-31.54Q102.82-32.47 103.24-33.37 103.65-34.28 104.09-35.21L104.09-35.21Q104.14-35.35 104.31-35.64 104.48-35.94 104.7-36.25 104.92-36.57 105.12-36.82 105.31-37.06 105.46-37.16L105.46-37.16Q105.56-37.26 105.78-37.28 106-37.3 106.14-37.35L106.14-37.35Q106.58-37.35 106.78-37.11L106.78-37.11Q107.37-36.87 107.66-36.77 107.95-36.67 108.1-36.33L108.1-36.33Q108.83-35.84 109.2-35.77 109.56-35.69 109.76-35.35L109.76-35.35Q110.3-35.01 110.39-34.86 110.49-34.72 110.59-34.57ZM115.08-0.63L114.74-0.78Q114.59-0.68 114.44-0.59 114.3-0.49 114.15-0.39L114.15-0.39Q113.61-0.1 113.17-0.07 112.73-0.05 112.2 0.44L112.2 0.44Q112 0.2 111.9 0.2 111.81 0.2 111.56 0.2L111.56 0.2Q110.93 0.2 110.83-0.15L110.83-0.15Q110.63-0.1 110.22 0.1 109.8 0.29 109.61 0.39L109.61 0.39Q110.05-0.24 110.2-0.59 110.34-0.93 110.37-1.22 110.39-1.51 110.41-1.83 110.44-2.15 110.63-2.73L110.63-2.73Q110.73-2.93 110.78-3.13 110.83-3.32 110.93-3.56L110.93-3.56Q111.17-4.3 111.34-5.22 111.51-6.15 111.9-6.84L111.9-6.84Q111.9-7.67 112.27-8.4 112.64-9.13 112.88-9.91L112.88-9.91Q112.98-10.21 113.15-10.5 113.32-10.79 113.42-11.08L113.42-11.08Q113.61-11.57 113.74-12.04 113.86-12.5 114-12.94L114-12.94Q114.39-14.36 114.78-15.75 115.18-17.14 115.52-18.55L115.52-18.55Q115.57-18.8 115.64-19.09 115.71-19.38 115.81-19.63L115.81-19.63Q116.05-20.36 116.13-21.12 116.2-21.88 116.59-22.56L116.59-22.56Q116.54-22.9 116.62-23.19 116.69-23.49 116.79-23.83 116.88-24.17 116.98-24.46 117.08-24.76 117.13-24.9L117.13-24.9Q117.37-25.54 117.49-26.05 117.62-26.56 118.01-27.15L118.01-27.15Q118.01-27.15 118.15-27.66 118.3-28.17 118.5-28.81 118.69-29.44 118.84-30 118.98-30.57 118.98-30.66L118.98-30.66Q119.08-31.05 119.16-31.4 119.23-31.74 119.33-32.13L119.33-32.13Q119.42-32.37 119.52-32.54 119.62-32.71 119.72-32.96L119.72-32.96Q119.86-33.5 120.01-34.28 120.16-35.06 120.4-35.5L120.4-35.5Q120.55-35.84 120.96-36.06 121.38-36.28 121.67-36.52L121.67-36.52Q122.55-36.43 122.96-36.62 123.38-36.82 123.77-37.11L123.77-37.11Q124.01-37.06 124.23-36.99 124.45-36.91 124.7-36.91L124.7-36.91Q125.62-35.89 125.99-34.81 126.36-33.74 126.7-32.67L126.7-32.67Q126.85-32.13 126.99-31.62 127.14-31.1 127.33-30.62L127.33-30.62Q127.38-30.47 127.48-30.3 127.58-30.13 127.68-29.93L127.68-29.93Q127.92-29.54 128.09-29.1 128.26-28.66 128.41-28.22L128.41-28.22Q128.7-27.88 128.85-27.42 128.99-26.95 129.12-26.49 129.24-26.03 129.38-25.61 129.53-25.2 129.82-24.9L129.82-24.9Q129.92-24.37 130.17-23.85 130.41-23.34 130.51-22.75L130.51-22.75Q130.8-22.36 131.19-21.26 131.58-20.17 131.97-18.9 132.36-17.63 132.7-16.46 133.05-15.28 133.19-14.79L133.19-14.79Q133.29-14.4 133.58-13.79 133.88-13.18 134.12-12.7L134.12-12.7Q134.32-12.16 134.54-11.57 134.76-10.99 134.9-10.45L134.9-10.45Q135-9.91 135.12-9.42 135.24-8.94 135.39-8.4L135.39-8.4Q135.49-8.06 135.68-7.79 135.88-7.52 135.98-7.13L135.98-7.13Q136.17-6.74 136.24-6.4 136.32-6.05 136.56-5.66L136.56-5.66Q136.51-5.13 136.61-4.98 136.71-4.83 136.81-4.64L136.81-4.64Q137-3.61 137.25-3 137.49-2.39 137.49-1.71L137.49-1.71Q137.49-1.12 137.27-0.98 137.05-0.83 136.71-0.49L136.71-0.49Q136.32-0.15 136.05 0.05 135.78 0.24 135.24 0.24L135.24 0.24Q134.66 0.2 134.54 0.42 134.41 0.63 134.37 0.73L134.37 0.73Q133.78 0.68 133.61 0.71 133.44 0.73 133.27 0.73 133.1 0.73 132.92 0.81 132.75 0.88 132.56 1.12L132.56 1.12Q132.22 0.73 131.9 0.42 131.58 0.1 131.34-0.29L131.34-0.29Q131.34-1.12 131.12-2.25 130.9-3.37 130.65-4L130.65-4Q130.17-5.27 129.75-6.49 129.34-7.71 128.95-8.98L128.95-8.98Q128.8-9.52 128.63-9.96 128.46-10.4 128.26-10.89L128.26-10.89Q128.36-10.5 128.33-10.08 128.31-9.67 128.07-9.28L128.07-9.28Q127.97-9.18 127.77-9.03 127.58-8.89 127.58-8.79L127.58-8.79Q126.99-8.3 126.55-7.86L126.55-7.86Q126.6-6.98 126.31-6.64 126.02-6.3 125.67-6.01L125.67-6.01Q124.84-5.96 124.65-6.1 124.45-6.25 124.11-6.3L124.11-6.3Q123.92-6.35 123.72-6.32 123.53-6.3 123.33-6.3L123.33-6.3Q122.94-6.3 122.6-6.49L122.6-6.49Q122.45-6.59 122.38-6.69 122.3-6.79 122.21-6.88L122.21-6.88Q121.82-7.28 121.3-7.54 120.79-7.81 120.3-8.01L120.3-8.01Q119.91-8.35 119.5-8.72 119.08-9.08 118.64-9.33L118.64-9.33Q118.25-8.4 118.03-7.69 117.81-6.98 117.52-6.3L117.52-6.3Q116.98-4.64 116.64-3.39 116.3-2.15 115.86-0.88L115.86-0.88Q115.66-0.83 115.49-0.73 115.32-0.63 115.08-0.63L115.08-0.63ZM119.33-11.18L119.52-11.18Q119.91-11.87 120.23-11.94 120.55-12.01 120.79-12.3L120.79-12.3Q120.89-12.4 121.01-12.55 121.13-12.7 121.28-12.84L121.28-12.84Q121.43-12.94 121.62-13.04 121.82-13.13 121.96-13.28L121.96-13.28Q122.35-13.62 122.62-13.87 122.89-14.11 123.43-14.11L123.43-14.11Q124.26-14.11 124.79-13.7 125.33-13.28 126.11-13.13L126.11-13.13Q126.21-12.84 126.75-12.72 127.28-12.6 127.58-12.4L127.58-12.4Q127.09-13.62 126.82-14.87 126.55-16.11 126.16-17.33L126.16-17.33Q125.87-18.41 125.48-19.46 125.09-20.51 124.7-21.48L124.7-21.48Q124.36-22.46 124.11-23.39 123.87-24.32 123.48-25.2L123.48-25.2Q123.09-24.32 122.7-23.05 122.3-21.78 122.11-20.8L122.11-20.8Q122.11-20.36 122.06-20.12L122.06-20.12Q121.96-19.78 121.87-19.51 121.77-19.24 121.67-18.95L121.67-18.95Q121.03-17.04 120.52-15.09 120.01-13.13 119.33-11.18L119.33-11.18ZM161.02-36.67L161.02-36.67Q161.56-36.67 161.8-36.52L161.8-36.52Q162.05-36.04 162.12-35.67 162.19-35.3 162.19-34.81L162.19-34.81Q162.24-34.08 162.22-33.76 162.19-33.45 162.15-33.11L162.15-33.11Q162.1-32.32 162.1-31.62 162.1-30.91 162.1-30.13L162.1-30.13Q162.1-28.42 162.15-26.66 162.19-24.9 162.19-23.19L162.19-23.19Q162.19-22.51 162.17-21.85 162.15-21.19 162.15-20.51L162.15-20.51Q162.15-20.36 162.17-20.19 162.19-20.02 162.19-19.87L162.19-19.87Q162.19-19.43 162.17-19.02 162.15-18.6 162.15-18.21L162.15-18.21Q162.15-18.02 162.15-17.87 162.15-17.72 162.19-17.48L162.19-17.48Q162.1-17.09 162.1-16.94L162.1-16.94Q162.1-16.16 162.15-15.36 162.19-14.55 162.19-13.77L162.19-13.77Q162.19-13.04 162.22-12.35 162.24-11.67 162.24-10.94L162.24-10.94Q162.24-10.55 162.22-10.11 162.19-9.67 162.19-9.23L162.19-9.23Q162.19-8.2 162.24-7.15 162.29-6.1 162.34-5.08L162.34-5.08Q162.34-4.39 162.34-3.74 162.34-3.08 162.44-2.39L162.44-2.39Q162.44-1.61 162.37-1.25 162.29-0.88 162.19-0.54L162.19-0.54Q161.8-0.44 161.68-0.46 161.56-0.49 161.41-0.49L161.41-0.49Q160.73-0.29 160.53-0.12 160.34 0.05 160.09 0.24L160.09 0.24Q159.9 0.24 159.63 0.27 159.36 0.29 159.22 0.44L159.22 0.44Q158.97 0.34 158.83 0.39 158.68 0.44 158.53 0.44L158.53 0.44Q157.85 0.49 157.6 0.61 157.36 0.73 156.92 0.73L156.92 0.73Q156.53 0.1 156.34-0.27 156.14-0.63 155.7-0.59L155.7-0.59Q155.07-1.56 154.8-2.64 154.53-3.71 153.89-4.59L153.89-4.59Q153.84-4.98 153.75-5.08 153.65-5.18 153.55-5.47L153.55-5.47Q153.36-5.86 153.21-6.3 153.06-6.74 152.82-7.13L152.82-7.13Q152.43-7.96 152.04-8.76 151.65-9.57 151.31-10.45L151.31-10.45Q151.16-10.84 151.06-11.25 150.96-11.67 150.82-12.06L150.82-12.06Q150.72-12.26 150.6-12.45 150.48-12.65 150.38-12.79L150.38-12.79Q150.09-13.33 149.82-13.87 149.55-14.4 149.21-14.94L149.21-14.94Q149.11-15.19 148.94-15.41 148.77-15.63 148.57-15.87L148.57-15.87Q148.43-16.21 148.3-16.55 148.18-16.89 148.03-17.24L148.03-17.24Q147.94-17.53 147.74-17.85 147.55-18.16 147.45-18.46L147.45-18.46Q147.35-18.7 147.3-18.95 147.25-19.19 147.01-19.38L147.01-19.38Q146.67-18.8 146.67-18.6L146.67-18.6Q146.62-18.02 146.59-17.65 146.57-17.29 146.57-16.99L146.57-16.99Q146.57-16.65 146.64-16.33 146.72-16.02 146.72-15.72L146.72-15.72Q146.81-14.55 146.86-13.35 146.91-12.16 146.91-10.99L146.91-10.99Q146.86-10.06 146.89-9.57 146.91-9.08 146.96-8.59L146.96-8.59Q147.01-8.11 146.98-7.59 146.96-7.08 147.01-6.59L147.01-6.59Q147.01-5.47 147.03-4.42 147.06-3.37 147.06-2.25L147.06-2.25 147.06-1.07Q147.06-0.54 146.91-0.1L146.91-0.1Q146.18-0.1 145.96-0.15 145.74-0.2 145.5-0.29L145.5-0.29Q145.2-0.24 145.03-0.07 144.86 0.1 144.62 0.24L144.62 0.24Q144.08 0.2 144.03 0.27 143.98 0.34 143.84 0.44L143.84 0.44Q143.69 0.49 143.57 0.44 143.44 0.39 143.3 0.39L143.3 0.39Q142.91 0.29 142.66 0.29L142.66 0.29Q142.37 0.39 142.1 0.49 141.83 0.59 141.54 0.63L141.54 0.63Q141.25 0.1 141.2-0.63 141.15-1.37 140.81-1.9L140.81-1.9Q140.91-2.1 140.93-2.15 140.95-2.2 140.95-2.44L140.95-2.44Q140.95-3.56 140.91-4.69 140.86-5.81 140.86-6.93L140.86-6.93Q140.86-7.86 140.73-8.74 140.61-9.62 140.61-10.55L140.61-10.55Q140.61-10.84 140.66-11.13 140.71-11.43 140.71-11.77L140.71-11.77Q140.71-11.91 140.69-12.06 140.66-12.21 140.66-12.3L140.66-12.3Q140.56-13.18 140.54-14.11 140.51-15.04 140.51-15.97L140.51-15.97Q140.47-16.5 140.44-17.09 140.42-17.68 140.42-18.31L140.42-18.31Q140.42-18.55 140.47-18.85 140.51-19.14 140.51-19.43L140.51-19.43 140.51-21.48Q140.42-22.07 140.44-22.27 140.47-22.46 140.47-22.66L140.47-22.66Q140.47-23.1 140.39-23.51 140.32-23.93 140.32-24.41L140.32-24.41Q140.32-24.76 140.39-25.07 140.47-25.39 140.47-25.73L140.47-25.73Q140.47-26.46 140.39-27.15 140.32-27.83 140.32-28.56L140.32-28.56 140.32-32.71Q140.32-33.06 140.27-33.4 140.22-33.74 140.22-34.13L140.22-34.13Q140.51-34.81 140.76-34.84 141-34.86 141.2-35.01L141.2-35.01Q141.74-34.91 142.13-35.11L142.13-35.11Q142.76-35.06 142.91-35.25L142.91-35.25Q143.01-35.16 143.18-35.18 143.35-35.21 143.49-35.16L143.49-35.16Q143.64-35.25 143.74-35.35 143.84-35.45 144.03-35.55L144.03-35.55Q144.57-35.84 144.67-35.91 144.76-35.99 144.91-36.08L144.91-36.08Q145.15-36.08 145.23-35.94 145.3-35.79 145.54-35.79L145.54-35.79Q145.64-35.6 145.79-35.4 145.93-35.21 146.13-35.11L146.13-35.11Q146.52-34.28 147.06-33.69L147.06-33.69Q147.5-32.42 148.06-31.25 148.62-30.08 149.26-28.91L149.26-28.91Q149.26-28.76 149.3-28.54 149.35-28.32 149.4-28.22L149.4-28.22Q149.65-27.69 150.11-26.83 150.57-25.98 150.92-25.44L150.92-25.44Q151.01-25.24 151.16-25.1 151.31-24.95 151.4-24.76L151.4-24.76Q151.55-24.51 151.65-24.22 151.75-23.93 151.89-23.68L151.89-23.68Q152.14-23.1 152.45-22.53 152.77-21.97 153.11-21.39L153.11-21.39Q153.21-21.09 153.33-20.8 153.45-20.51 153.6-20.21L153.6-20.21Q153.99-19.34 154.31-18.87 154.63-18.41 154.77-17.87L154.77-17.87Q155.11-17.48 155.31-17.02 155.51-16.55 155.9-16.26L155.9-16.26Q155.94-16.5 155.99-17.7 156.04-18.9 156.04-20.31 156.04-21.73 156.04-23 156.04-24.27 156.04-24.71L156.04-24.71Q156.04-26.03 155.99-27.32 155.94-28.61 155.94-29.88L155.94-29.88Q155.94-30.91 155.97-31.96 155.99-33.01 156.04-34.03L156.04-34.03Q156.09-34.57 156.07-35.03 156.04-35.5 156.09-35.99L156.09-35.99Q156.14-36.23 156.29-36.47 156.43-36.72 156.53-36.96L156.53-36.96Q157.17-37.06 157.51-36.72L157.51-36.72Q157.8-36.87 158.22-36.87 158.63-36.87 158.92-36.91L158.92-36.91Q159.31-36.96 159.36-36.99 159.41-37.01 159.51-37.01L159.51-37.01Q159.7-36.91 159.88-36.87 160.05-36.82 160.29-36.72L160.29-36.72Q160.73-36.87 161.02-36.67ZM183.48-5.62L183.48-5.62Q183.38-5.32 183.38-5.08L183.38-5.08Q183.38-4.79 183.46-4.49 183.53-4.2 183.53-3.91L183.53-3.91Q183.43-3.03 183.38-2.83L183.38-2.83Q183.09-2.59 182.19-2.27 181.28-1.95 180.04-1.64 178.79-1.32 177.35-1 175.91-0.68 174.59-0.39 173.28-0.1 172.18 0.12 171.08 0.34 170.54 0.44L170.54 0.44Q170.3 0.49 170.08 0.56 169.86 0.63 169.61 0.73L169.61 0.73Q169.37 0.78 169.13 0.76 168.88 0.73 168.64 0.83L168.64 0.83Q168.49 0.83 168.37 0.68 168.25 0.54 168.15 0.44L168.15 0.44Q168.15 0.15 168.05 0 167.95-0.15 167.83-0.24 167.71-0.34 167.61-0.46 167.51-0.59 167.51-0.88L167.51-0.88Q167.42-1.27 167.25-1.49 167.07-1.71 167.07-1.9L167.07-1.9Q166.88-2.54 166.88-3.03L166.88-3.03Q166.88-3.27 166.93-3.42 166.98-3.56 167.07-3.71L167.07-3.71Q167.37-3.81 167.51-3.96 167.66-4.1 167.9-4.2L167.9-4.2Q168.2-4.35 168.74-4.47 169.27-4.59 169.91-4.74 170.54-4.88 171.13-5.03 171.71-5.18 172.1-5.32L172.1-5.32Q172.25-5.37 172.4-5.37 172.54-5.37 172.64-5.47L172.64-5.47Q172.54-6.25 172.52-7.03 172.49-7.81 172.4-8.54L172.4-8.54Q172.4-8.89 172.35-9.23 172.3-9.57 172.3-9.86L172.3-9.86 172.35-10.89Q172.35-12.74 172.2-14.6 172.06-16.46 172.06-18.31L172.06-18.31 172.06-19.97Q172.06-20.36 172.03-20.7 172.01-21.04 172.01-21.44L172.01-21.44Q172.01-22.36 172.03-23.22 172.06-24.07 172.06-25L172.06-25 172.06-29.49Q170.98-29.74 170.05-29.47 169.13-29.2 168.15-29.1L168.15-29.1Q167.81-29.44 167.76-29.83L167.76-29.83Q167.37-30.37 167.22-30.52 167.07-30.66 166.88-31.35L166.88-31.35Q166.54-32.03 166.32-32.2 166.1-32.37 166.1-32.76L166.1-32.76Q166.1-33.01 166.22-33.11 166.34-33.2 166.44-33.45L166.44-33.45Q166.88-33.64 166.95-33.72 167.03-33.79 167.12-33.84L167.12-33.84Q167.61-34.18 168.25-34.33 168.88-34.47 169.47-34.67L169.47-34.67Q169.96-34.81 170.4-35.01 170.83-35.21 171.37-35.35L171.37-35.35Q172.01-35.55 172.64-35.74 173.28-35.94 173.86-36.08L173.86-36.08Q174.25-36.18 174.62-36.16 174.99-36.13 175.38-36.38L175.38-36.38Q176.01-36.28 176.72-36.4 177.43-36.52 178.26-36.72 179.09-36.91 179.87-37.06 180.65-37.21 181.04-37.3L181.04-37.3Q181.28-37.21 181.38-37.06 181.48-36.91 181.67-36.87L181.67-36.87Q181.72-36.72 181.77-36.5 181.82-36.28 181.97-36.18L181.97-36.18Q181.97-35.64 182.21-35.4L182.21-35.4Q182.16-34.91 182.38-34.3 182.6-33.69 182.6-33.15L182.6-33.15Q182.36-32.42 181.8-32.23 181.24-32.03 180.58-31.88 179.92-31.74 179.28-31.62 178.65-31.49 178.26-31.35L178.26-31.35Q178.26-30.66 178.28-29.93 178.31-29.2 178.31-28.47L178.31-28.47Q178.31-27.78 178.28-27.1 178.26-26.42 178.26-25.73L178.26-25.73Q178.26-24.71 178.23-23.63 178.21-22.56 178.21-21.48L178.21-21.48Q178.21-19.97 178.26-18.46 178.31-16.94 178.4-15.43L178.4-15.43Q178.45-15.19 178.45-14.7L178.45-14.7Q178.45-12.74 178.53-10.86 178.6-8.98 178.79-6.98L178.79-6.98Q179.43-6.93 179.77-7.18L179.77-7.18Q180.01-7.18 180.23-7.28 180.45-7.37 180.65-7.47L180.65-7.47Q180.94-7.52 181.45-7.64 181.97-7.76 182.11-7.76L182.11-7.76Q182.55-7.71 182.65-7.76L182.65-7.76Q182.8-7.47 183.09-7.32L183.09-7.32Q183.19-6.88 183.26-6.47 183.33-6.05 183.48-5.62ZM222.15-0.15L222.15-0.15Q221.91 0.1 221.61 0.15 221.32 0.2 221.03 0.2L221.03 0.2Q220.3 0.54 219.46 0.54L219.46 0.54Q218.93 0.24 218.88 0.34 218.83 0.44 218.68 0.54L218.68 0.54Q217.95 0.88 217.37 0.9 216.78 0.93 216.39 1.17L216.39 1.17Q216 0.88 215.97 0.32 215.95-0.24 215.85-0.63L215.85-0.63Q215.61-0.98 215.51-1.49 215.41-2 215.36-2.54 215.31-3.08 215.24-3.59 215.17-4.1 214.97-4.49L214.97-4.49Q214.92-4.74 214.95-4.93 214.97-5.13 214.88-5.37L214.88-5.37Q214.92-6.2 214.83-6.69 214.73-7.18 214.63-7.71L214.63-7.71Q214.58-8.01 214.58-8.37 214.58-8.74 214.29-8.94L214.29-8.94Q214.44-9.62 214.34-9.96 214.24-10.3 214.19-10.6L214.19-10.6Q214.14-10.99 214.14-11.45 214.14-11.91 214.05-12.3L214.05-12.3Q213.75-14.65 213.41-16.99 213.07-19.34 212.78-21.68L212.78-21.68Q212.48-21.44 212.36-20.95 212.24-20.46 212.14-20.07L212.14-20.07Q211.85-19.19 211.6-18.26 211.36-17.33 211.12-16.46L211.12-16.46Q211.02-16.06 210.94-15.55 210.87-15.04 210.72-14.65L210.72-14.65Q210.24-13.23 209.87-12.21 209.5-11.18 209.16-10.11L209.16-10.11Q209.06-9.52 208.97-8.98 208.87-8.45 208.77-7.91L208.77-7.91Q208.72-7.62 208.63-7.08 208.53-6.54 208.43-6.3L208.43-6.3Q208.33-6.05 208.26-5.96 208.19-5.86 208.23-5.62L208.23-5.62Q207.75-4.88 207.58-4 207.4-3.13 206.96-2.29L206.96-2.29Q206.96-1.71 206.53-1.27L206.53-1.27Q206.28-1.22 206.06-1.17 205.84-1.12 205.6-0.98L205.6-0.98Q205.35-1.07 205.04-1.1 204.72-1.12 204.43-1.12L204.43-1.12Q204.18-1.17 203.99-1.29 203.79-1.42 203.55-1.46L203.55-1.46Q203.3-1.76 203.01-1.98 202.72-2.2 202.42-2.44L202.42-2.44Q202.13-3.17 201.89-3.42L201.89-3.42Q201.74-3.96 201.5-4.42 201.25-4.88 201.15-5.47L201.15-5.47Q201.01-6.01 200.79-6.47 200.57-6.93 200.32-7.47L200.32-7.47Q200.23-7.81 200.1-8.13 199.98-8.45 199.84-8.79L199.84-8.79Q199.79-9.18 199.57-9.77 199.35-10.35 199.25-10.79L199.25-10.79Q199.25-10.84 199.08-11.3 198.91-11.77 198.74-12.3 198.57-12.84 198.4-13.28 198.22-13.72 198.18-13.77L198.18-13.77Q198.08-14.01 198-14.23 197.93-14.45 197.83-14.75L197.83-14.75Q197.64-15.38 197.35-16.04 197.05-16.7 196.76-17.29L196.76-17.29Q196.52-17.77 196.42-18.24 196.32-18.7 196.17-19.14L196.17-19.14Q196.08-19.38 196-19.58 195.93-19.78 195.83-20.02L195.83-20.02Q195.73-20.31 195.64-20.63 195.54-20.95 195.44-21.29L195.44-21.29Q195.2-21.19 195.22-20.87 195.25-20.56 195.2-20.31L195.2-20.31Q195.1-19.78 195.1-19.26 195.1-18.75 195.05-18.21L195.05-18.21Q194.95-17.63 194.86-17.09 194.76-16.55 194.71-16.02L194.71-16.02Q194.71-14.7 194.56-13.38L194.56-13.38Q194.46-12.21 194.32-11.01 194.17-9.81 194.12-8.54L194.12-8.54Q194.12-7.62 193.93-6.71 193.73-5.81 193.83-4.83L193.83-4.83Q193.73-4.64 193.73-4.54 193.73-4.44 193.73-4.25L193.73-4.25Q193.73-4 193.71-3.71 193.68-3.42 193.68-3.17L193.68-3.17Q193.68-2.73 193.78-2.59L193.78-2.59Q193.63-2.15 193.63-1.64 193.63-1.12 193.63-0.63L193.63-0.63Q193.54-0.44 193.51-0.24 193.49-0.05 193.34 0.15L193.34 0.15Q193.39 0.98 192.85 0.98L192.85 0.98Q192.71 0.98 192.54 0.9 192.37 0.83 192.27 0.68L192.27 0.68Q191.73 0.73 191.66 0.44 191.58 0.15 191.34 0.2L191.34 0.2Q190.75 0.44 190.68 0.34 190.61 0.24 190.36 0.29L190.36 0.29Q189.97-0.1 189.85-0.05 189.73 0 189.63 0L189.63 0Q189.19-0.15 189.14-0.07 189.09 0 188.95 0L188.95 0Q188.7-0.24 188.29-0.24 187.87-0.24 187.58-0.29L187.58-0.29Q187.53-0.49 187.51-0.66 187.48-0.83 187.48-1.07L187.48-1.07Q187.48-1.37 187.51-1.64 187.53-1.9 187.53-2.2L187.53-2.2Q187.53-2.44 187.51-2.71 187.48-2.98 187.48-3.32L187.48-3.32Q187.48-3.66 187.53-3.98 187.58-4.3 187.58-4.69L187.58-4.69Q187.58-4.83 187.53-4.96 187.48-5.08 187.48-5.27L187.48-5.27Q187.78-5.91 187.75-6.27 187.73-6.64 187.78-6.98L187.78-6.98Q187.87-7.81 187.95-8.62 188.02-9.42 188.12-10.25L188.12-10.25Q188.12-11.62 188.19-12.52 188.26-13.43 188.41-14.36L188.41-14.36Q188.51-14.79 188.58-15.19 188.65-15.58 188.75-16.02L188.75-16.02Q188.85-16.75 188.87-17.55 188.9-18.36 189-19.14L189-19.14Q189.09-20.36 189.24-21.56 189.39-22.75 189.48-23.93L189.48-23.93Q189.58-24.85 189.7-25.76 189.83-26.66 189.83-27.49L189.83-27.49Q189.83-27.93 189.95-28.61 190.07-29.3 190.12-29.79L190.12-29.79Q190.22-30.96 190.29-32.08 190.36-33.2 190.36-34.33L190.36-34.33 190.36-34.86Q190.36-34.96 190.46-35.06 190.56-35.16 190.56-35.4L190.56-35.4Q190.56-35.84 190.78-36.01 191-36.18 191.14-36.57L191.14-36.57Q191.39-36.57 191.71-36.52 192.02-36.47 192.17-36.23L192.17-36.23Q192.51-36.33 192.85-36.33 193.2-36.33 193.44-36.57L193.44-36.57Q193.73-36.57 193.88-36.43 194.03-36.28 194.27-36.18L194.27-36.18Q194.46-36.28 194.66-36.35 194.86-36.43 195.05-36.52L195.05-36.52Q195.2-36.43 195.27-36.3 195.34-36.18 195.49-36.13L195.49-36.13Q196.22-36.33 196.47-36.18L196.47-36.18Q196.56-35.99 196.59-35.79 196.61-35.6 196.66-35.4L196.66-35.4Q197.15-34.91 197.3-34.3 197.44-33.69 197.83-33.2L197.83-33.2Q197.93-32.91 198.05-32.62 198.18-32.32 198.27-31.93L198.27-31.93 198.42-31.35Q198.62-30.86 198.91-30.18L198.91-30.18Q199.15-29.25 199.35-28.27 199.54-27.29 199.98-26.46L199.98-26.46Q200.03-26.17 200.15-25.76 200.28-25.34 200.37-25.05L200.37-25.05Q200.71-24.22 201.08-23.41 201.45-22.61 201.74-21.68L201.74-21.68Q202.03-20.75 202.25-19.78 202.47-18.8 202.81-17.87L202.81-17.87Q203.11-16.99 203.25-16.6 203.4-16.21 203.64-15.82L203.64-15.82Q203.64-15.67 203.72-15.33 203.79-14.99 203.94-14.62 204.08-14.26 204.23-13.94 204.38-13.62 204.52-13.57L204.52-13.57Q204.67-13.67 204.69-13.87 204.72-14.06 204.87-14.21L204.87-14.21Q204.91-14.75 205.04-15.53 205.16-16.31 205.4-16.8L205.4-16.8Q205.4-17.04 205.52-17.7 205.65-18.36 205.84-19.12 206.04-19.87 206.21-20.51 206.38-21.14 206.53-21.29L206.53-21.29Q206.62-21.92 206.7-22.07 206.77-22.22 206.87-22.31L206.87-22.31Q206.92-22.71 207.06-23.05 207.21-23.39 207.26-23.78L207.26-23.78Q207.36-24.61 207.5-25.15 207.65-25.68 207.89-26.46L207.89-26.46Q208.09-27.15 208.26-27.86 208.43-28.56 208.67-29.25L208.67-29.25Q209.26-31.1 209.72-32.54 210.19-33.98 210.87-35.35L210.87-35.35Q211.02-35.79 211.12-35.89 211.21-35.99 211.31-36.08L211.31-36.08Q211.7-36.23 212.12-36.23 212.53-36.23 212.97-36.18L212.97-36.18Q213.46-36.38 213.7-36.62L213.7-36.62Q213.9-36.38 214.29-36.38L214.29-36.38Q214.78-36.38 214.97-36.67L214.97-36.67Q215.17-36.57 215.29-36.62 215.41-36.67 215.66-36.57L215.66-36.57Q215.75-36.67 215.9-36.79 216.05-36.91 216.19-36.91L216.19-36.91Q216.58-36.43 216.8-36.16 217.02-35.89 217.12-35.55L217.12-35.55Q217.27-35.11 217.29-34.59 217.32-34.08 217.56-33.64L217.56-33.64Q217.51-33.01 217.63-31.71 217.76-30.42 217.93-28.98 218.1-27.54 218.29-26.32 218.49-25.1 218.63-24.8L218.63-24.8Q218.59-24.17 218.68-23.73 218.78-23.29 218.78-22.85L218.78-22.85Q218.78-22.71 218.83-22.24 218.88-21.78 218.93-21.26 218.98-20.75 219.05-20.29 219.12-19.82 219.17-19.63L219.17-19.63Q219.17-18.75 219.46-18.26L219.46-18.26Q219.71-17.04 219.88-15.82 220.05-14.6 220.2-13.33L220.2-13.33Q220.3-12.7 220.32-12.11 220.34-11.52 220.44-10.89L220.44-10.89Q220.49-10.64 220.56-10.4 220.64-10.16 220.69-9.91L220.69-9.91Q220.78-9.42 220.83-8.98 220.88-8.54 220.98-8.11L220.98-8.11Q221.03-7.86 221.13-7.59 221.22-7.32 221.13-7.03L221.13-7.03Q221.22-6.69 221.2-6.3 221.17-5.91 221.37-5.62L221.37-5.62Q221.37-4.59 221.52-3.81L221.52-3.81Q221.56-3.22 221.81-2.64L221.81-2.64Q221.91-2.05 221.98-1.42 222.05-0.78 222.15-0.15ZM243.49-6.84L243.49-6.84Q243.88-6.2 244.07-5.62 244.27-5.03 244.27-4.79L244.27-4.79Q244.27-4.44 244.15-4.22 244.02-4 243.83-3.76L243.83-3.76Q241.87-2.93 239.95-2.22 238.02-1.51 236.02-0.83L236.02-0.83Q235.53-0.68 235.06-0.51 234.6-0.34 234.06-0.24L234.06-0.24Q233.96-0.15 233.72-0.05 233.48 0.05 233.16 0.15 232.84 0.24 232.55 0.32 232.26 0.39 232.16 0.39L232.16 0.39Q232.06 0.15 231.96 0.1 231.86 0.05 231.77 0L231.77 0Q231.52 0 231.45 0.17 231.38 0.34 231.13 0.44L231.13 0.44Q230.89 0.44 230.69 0.46 230.5 0.49 230.35 0.39L230.35 0.39Q229.96 0.49 229.64 0.73 229.33 0.98 228.94 1.07L228.94 1.07Q228.2 0.88 228.03 0.9 227.86 0.93 227.67 0.98L227.67 0.98Q227.32 0.68 227.35 0.15 227.37-0.39 227.08-0.73L227.08-0.73Q227.08-1.37 226.98-1.44 226.88-1.51 226.88-1.61L226.88-1.61Q226.88-1.95 226.93-2.25 226.98-2.54 226.88-2.88L226.88-2.88Q227.08-3.71 227.03-4.49 226.98-5.27 227.08-6.05L227.08-6.05Q227.08-6.3 227.1-6.52 227.13-6.74 227.13-6.98L227.13-6.98Q227.13-7.71 227.23-7.89 227.32-8.06 227.32-8.3L227.32-8.3Q227.32-8.64 227.3-8.96 227.27-9.28 227.27-9.67L227.27-9.67Q227.27-10.35 227.3-11.01 227.32-11.67 227.32-12.4L227.32-12.4Q227.32-14.26 227.08-16.11 226.84-17.97 226.84-19.82L226.84-19.82Q226.84-22.07 226.59-24.27 226.35-26.46 226.35-28.71L226.35-28.71Q226.35-29.1 226.35-29.81 226.35-30.52 226.35-31.27 226.35-32.03 226.37-32.71 226.4-33.4 226.44-33.69L226.44-33.69Q226.44-33.74 226.74-33.84 227.03-33.94 227.13-33.94L227.13-33.94Q227.37-33.94 227.52-33.81 227.67-33.69 227.86-33.59L227.86-33.59Q228.74-33.69 228.91-33.76 229.08-33.84 229.18-33.84L229.18-33.84Q229.47-33.84 229.64-33.69 229.81-33.54 229.91-33.54L229.91-33.54Q230.74-33.74 230.81-33.59 230.89-33.45 231.13-33.45L231.13-33.45Q231.77-33.64 231.91-33.59 232.06-33.54 232.21-33.54L232.21-33.54Q232.45-33.54 232.74-33.72 233.04-33.89 233.28-33.98L233.28-33.98Q234.11-34.23 234.65-34.47L234.65-34.47Q235.38-34.91 235.75-35.06 236.11-35.21 236.5-35.4L236.5-35.4Q237.33-35.74 238.09-36.11 238.85-36.47 239.68-36.87L239.68-36.87Q239.82-36.87 239.99-36.89 240.17-36.91 240.26-37.01L240.26-37.01Q240.41-36.96 240.58-36.96 240.75-36.96 240.9-36.96L240.9-36.96Q241.39-36.77 241.53-36.72L241.53-36.72Q241.73-36.43 241.9-36.16 242.07-35.89 242.31-35.64L242.31-35.64Q242.56-35.21 242.7-35.21L242.7-35.21Q242.7-35.06 242.56-34.89 242.41-34.72 242.41-34.57L242.41-34.57Q242.8-33.89 243.05-33.3 243.29-32.71 243.29-32.47L243.29-32.47Q243.29-32.13 243.19-31.91 243.1-31.69 242.95-31.45L242.95-31.45Q241.09-30.57 239.21-29.71 237.33-28.86 235.38-28.03L235.38-28.03Q234.89-27.83 234.45-27.61 234.01-27.39 233.48-27.29L233.48-27.29Q233.38-27.2 233.04-27.12 232.69-27.05 232.5-27.05L232.5-27.05Q232.6-26.22 232.62-25.42 232.65-24.61 232.69-23.78L232.69-23.78Q232.74-23.1 232.87-22.34 232.99-21.58 233.09-20.85L233.09-20.85Q234.7-21.53 236.28-22.22 237.87-22.9 239.48-23.58L239.48-23.58Q239.77-23.54 240.09-23.49 240.41-23.44 240.7-23.34L240.7-23.34Q240.8-23.24 240.9-23.1 241-22.95 241.14-22.85L241.14-22.85Q241.09-22.61 241.46-22.12 241.83-21.63 241.83-21.39L241.83-21.39Q241.83-21 241.92-20.92 242.02-20.85 242.12-20.51L242.12-20.51Q242.17-20.02 242.12-19.97L242.12-19.97Q242.36-19.73 242.51-19.48 242.66-19.24 242.66-18.9L242.66-18.9Q241.97-18.07 241.29-17.8 240.61-17.53 239.92-17.24L239.92-17.24Q239.68-17.14 239.41-16.97 239.14-16.8 238.9-16.7L238.9-16.7Q238.51-16.55 238.14-16.43 237.77-16.31 237.38-16.11L237.38-16.11Q236.75-15.77 236.09-15.36 235.43-14.94 234.75-14.79L234.75-14.79Q234.21-14.65 234.04-14.48 233.87-14.31 233.48-14.01L233.48-14.01 233.48-12.7 233.48-10.25Q233.48-9.77 233.48-9.25 233.48-8.74 233.43-8.2L233.43-8.2Q233.33-7.71 233.33-7.37L233.33-7.37 233.33-6.59Q233.57-6.69 233.82-6.76 234.06-6.84 234.31-6.93L234.31-6.93Q234.5-6.98 234.67-6.98 234.84-6.98 235.04-7.08L235.04-7.08Q235.28-7.13 235.43-7.18 235.58-7.23 235.77-7.32L235.77-7.32Q236.5-7.71 236.89-7.84 237.28-7.96 237.68-8.11L237.68-8.11Q238.51-8.4 239.29-8.72 240.07-9.03 240.85-9.33L240.85-9.33Q241.34-9.23 241.53-9.47L241.53-9.47Q241.78-9.42 241.95-9.38 242.12-9.33 242.36-9.33L242.36-9.33Q242.95-8.79 243.1-8.5 243.24-8.2 243.49-7.96L243.49-7.96Q243.73-7.52 243.83-7.52L243.83-7.52Q243.83-7.42 243.68-7.2 243.53-6.98 243.49-6.84Z" opacity="1" transform="matrix(1,0,0,1,0,0)" fill="#35185a" class="wordmark-text-0" data-fill-palette-color="primary" id="text-0"></path></svg></g></svg></g><g transform="matrix(1,0,0,1,0,78.50688975144644)"><svg viewBox="0 0 232.20979199999996 20.15759289888739" height="20.15759289888739" width="232.20979199999996"><g transform="matrix(1,0,0,1,0,0)"><svg width="232.20979199999996" viewBox="-0.7799999713897705 -34.66999816894531 399.3299865722656 34.32999801635742" height="20.15759289888739" data-palette-color="#ffdc00"><path d="M21-6.05L13.48-6.05Q13.31-5.49 13.15-4.58 12.99-3.66 12.85-3.14 12.72-2.61 12.4-2.04 12.08-1.46 11.44-1.2 10.79-0.93 9.77-0.93L9.77-0.93-0.78-0.93-0.78-1.76Q0.51-5.64 2.99-13.67 5.47-21.7 6.84-25.83L6.84-25.83 6.84-25.78Q7.67-28.15 9.28-33.2L9.28-33.2Q9.3-33.25 9.35-33.33L9.35-33.33Q9.57-33.69 9.77-33.89L9.77-33.89 22.95-33.79Q26.32-33.79 26.66-33.2L26.66-33.2 26.66-32.57Q26.71-32.35 27.2-31.45L27.2-31.45Q29.57-24.19 30.66-20.9L30.66-20.9 30.66-20.61Q30.76-19.9 31.1-18.99 31.45-18.09 31.92-17.05 32.4-16.02 32.59-15.43L32.59-15.43 33.57-11.91Q34.42-9.08 36.08-4.35L36.08-4.35 36.08-4.39 36.08-3.91Q36.16-3.56 36.45-2.98 36.74-2.39 36.82-2.15L36.82-2.15Q36.82-1.46 36.54-1.27 36.25-1.07 35.45-1.07L35.45-1.07 24.12-1.07Q23.71-1.12 23.58-1.15 23.46-1.17 23.21-1.25 22.95-1.32 22.84-1.44 22.73-1.56 22.71-1.76L22.71-1.76 21.78-5.47Q21.68-5.93 21.58-5.99 21.48-6.05 21-6.05L21-6.05ZM14.65-14.65L14.65-14.75 14.65-14.65ZM20.02-17.68L20.02-17.68Q19.87-18.36 19.59-19.89 19.31-21.41 19.04-22.55 18.77-23.68 18.46-24.66L18.46-24.66 18.46-25.83Q18.26-26.34 17.77-26.56L17.77-26.56 17.77-26.51Q17.19-26.39 16.6-23.24L16.6-23.24 16.6-22.07Q16.55-21.9 16.38-21.75 16.21-21.61 16.21-21.58L16.21-21.58Q15.41-18.02 14.89-15.82L14.89-15.82Q14.89-15.58 14.77-14.97 14.65-14.36 14.65-14.26L14.65-14.26 20.7-14.26Q20.7-14.89 20.26-16.55L20.26-16.55 20.26-17.09Q20.24-17.16 20.13-17.37 20.02-17.58 20.02-17.68ZM62.4-33.59L70.75-33.59Q71.04-33.5 71.2-32.75 71.36-32.01 71.38-30.88 71.41-29.76 71.38-28.74 71.36-27.71 71.32-26.64 71.29-25.56 71.29-25.29L71.29-25.29Q71.24-24.32 71.24-22.56L71.24-22.56 71.24-19.97Q71.24-18.26 71.29-15.28 71.34-12.3 71.34-10.89L71.34-10.89 71.34-2Q71.24-1.17 69.97-1.17L69.97-1.17 56.3-1.17Q55.86-1.27 55.17-3.22L55.17-3.22Q54.71-4.52 53.62-7.47 52.54-10.42 51.76-12.66 50.97-14.89 50.34-16.99L50.34-16.99 50.34-17.14 50.34-16.99Q50.27-15.38 50.19-12.19 50.12-9.01 50.05-7.42L50.05-7.42 50.05-2.44Q50.05-1.71 49.88-1.43 49.7-1.15 48.97-0.98L48.97-0.98 38.91-0.98 37.84-2.05Q37.96-6.1 38.03-14.75 38.11-23.39 38.23-27.54L38.23-27.54 38.23-32.81Q38.47-33.69 38.82-33.69L38.82-33.69 38.82-33.59Q40.48-33.59 44.03-33.69 47.58-33.79 49.36-33.79L49.36-33.79 53.46-33.79Q53.49-33.79 53.54-33.76L53.54-33.76Q53.98-33.59 54.03-33.37L54.03-33.37 54.05-33.2Q54.93-30.83 55.83-28.3 56.74-25.76 57.98-22.16 59.23-18.55 59.71-17.19L59.71-17.19 59.71-20.8Q60.2-29.39 60.2-33.01L60.2-33.01Q60.2-33.4 60.74-33.5 61.28-33.59 62.4-33.59L62.4-33.59ZM89.11-0.93L75.73-0.93 75.73-33.01Q75.75-33.2 76.12-33.36 76.48-33.52 76.56-33.59L76.56-33.59 89.69-33.59 89.69-1.81Q89.57-1.29 89.46-1.11 89.35-0.93 89.11-0.93L89.11-0.93ZM109.66-33.5L112.15-33.5Q112.32-33.54 112.7-33.58 113.08-33.62 113.18-33.64L113.18-33.64 116.08-18.77 119.89-33.69 137.05-33.69Q137.74-33.69 137.74-30.81L137.74-30.81 137.74-2.05Q137.69-1.66 137.52-1.42 137.35-1.17 137.02-1.09 136.69-1 136.5-0.99 136.32-0.98 135.88-0.98L135.88-0.98Q134.34-0.98 131.21-0.93 128.07-0.88 126.51-0.88L126.51-0.88Q125.29-1.64 125.29-6.49L125.29-6.49Q125.29-7.71 125.33-9.68 125.38-11.65 125.38-12.6L125.38-12.6 125.38-14.75Q125.38-14.92 125.36-15.3 125.33-15.67 125.33-15.87L125.33-15.87Q125.33-16.7 125.43-18.55L125.43-18.55 125.43-16.7Q125.09-15.26 124.11-12.3 123.14-9.35 122.8-7.91L122.8-7.91 121.33-1.66Q120.94-0.98 118.89-0.98L118.89-0.98Q117.89-0.98 116.29-1.03 114.69-1.07 113.86-1.07L113.86-1.07Q113.62-1.07 113.03-1.05 112.44-1.03 112.3-1.03L112.3-1.03Q111.52-1.03 111.17-1.22 110.83-1.42 110.69-2L110.69-2Q108.39-12.18 107.51-16.41L107.51-16.41 106.63-20.61Q106.29-13.5 106.29-5.57L106.29-5.57 106.29-1.27 94.77-1.27Q94.77-1.42 94.84-1.9 94.91-2.39 94.91-2.44L94.91-2.44Q94.72-7.13 94.72-14.01L94.72-14.01Q94.72-16.09 94.69-19.54 94.67-23 94.67-24.32L94.67-24.32 94.67-32.96Q94.67-33.28 94.77-33.44 94.87-33.59 95.26-33.89L95.26-33.89 97.5-33.89Q98.72-33.89 99.26-33.94L99.26-33.94Q101.73-33.94 105.25-33.72 108.78-33.5 109.66-33.5L109.66-33.5ZM125.43-18.75L125.43-18.7 125.43-18.75ZM142.32-1.81L142.32-31.54Q142.32-33.01 142.45-33.25L142.45-33.25Q142.67-33.59 143.15-33.59L143.15-33.59 143.74-33.59Q144.13-33.59 144.28-33.54L144.28-33.54 145.55-33.54Q148.01-33.54 153.01-33.67 158-33.79 160.49-33.79L160.49-33.79 166.98-33.79Q167.62-33.72 167.62-33.15L167.62-33.15 167.62-25Q167.59-24.85 167.53-24.74 167.47-24.63 167.43-24.6 167.4-24.56 167.2-24.43 167.01-24.29 166.93-24.22L166.93-24.22 155.61-24.22 155.61-21.19 156.68-21.19Q158.1-21.19 161-21.29 163.91-21.39 165.47-21.39L165.47-21.39Q166.15-21.39 166.4-21.12 166.64-20.85 166.64-20.36L166.64-20.36Q166.64-20.24 166.59-19.95 166.54-19.65 166.54-19.53L166.54-19.53 166.54-18.6Q166.54-18.51 166.57-18.2 166.59-17.9 166.59-17.68L166.59-17.68 166.59-16.99Q166.59-16.46 166.64-15.92 166.69-15.38 166.69-14.99L166.69-14.99 166.69-14.36Q166.57-14.06 166.49-13.96 166.42-13.87 166.25-13.87L166.25-13.87 166.25-13.92Q165.35-13.92 163.14-13.79 160.93-13.67 159.61-13.67L159.61-13.67 155.7-13.67 155.7-10.55Q155.9-10.55 156.29-10.52 156.68-10.5 156.87-10.5L156.87-10.5Q157.97-10.5 160.12-10.57 162.27-10.64 163.22-10.64L163.22-10.64 166.35-10.64Q167.62-10.64 167.96-10.35L167.96-10.35Q168.08-10.21 168.15-10.06L168.15-10.06 168.15-2.25Q168.15-1.73 167.96-1.46 167.76-1.2 167.23-1.17L167.23-1.17 143.06-1.17 142.32-1.81ZM186.56-0.98L185.92-2.05 185.92-33.01Q185.92-33.4 186.17-33.58 186.41-33.76 186.62-33.78 186.83-33.79 187.39-33.79L187.39-33.79 210.43-33.79Q210.63-33.79 210.75-33.73 210.87-33.67 210.95-33.61 211.02-33.54 211.04-33.41 211.07-33.28 211.08-33.2 211.09-33.13 211.08-32.98 211.07-32.84 211.07-32.81L211.07-32.81 211.07-24.51 199.64-24.51 199.64-23.63Q199.64-23.34 199.74-22.07L199.74-22.07 202.04-22.07Q202.38-22.09 203.27-22.23 204.16-22.36 204.67-22.36L204.67-22.36 206.67-22.36Q207.36-22.36 207.7-22.41L207.7-22.41Q208.7-22.41 209.53-22.17 210.36-21.92 210.43-21.63L210.43-21.63 210.43-20.21Q210.43-19.75 210.39-18.79 210.34-17.82 210.34-17.33L210.34-17.33 210.34-15.14Q210.39-14.94 210.39-14.45L210.39-14.45 210.39-13.48Q210.29-12.7 208.87-12.7L208.87-12.7 207.31-12.7Q206.48-12.7 204.93-12.65 203.38-12.6 202.52-12.6L202.52-12.6 199.79-12.6 199.79-0.98 186.56-0.98ZM211.75-16.21L211.75-17.68 211.7-18.21Q212.17-22.19 212.58-23.75L212.58-23.75Q213.53-27.42 216-29.88L216-29.88 216.58-30.47Q217.76-31.84 220.15-32.81L220.15-32.81 221.08-32.81Q223.47-33.81 228.94-34.67L228.94-34.67Q230.3-34.67 231.81-34.46 233.31-34.25 235.14-33.78 236.97-33.3 238.67-32.26 240.36-31.23 241.49-29.79L241.49-29.79 241.49-29.1Q245.49-24.1 245.49-17.87L245.49-17.87Q245.49-10.86 242.27-6.45L242.27-6.45 241.29-5.22Q240.17-3.83 238.5-2.83 236.82-1.83 234.94-1.31 233.06-0.78 231.34-0.56 229.62-0.34 227.91-0.34L227.91-0.34Q225.4-0.34 223.11-0.94 220.83-1.54 218.84-2.81 216.85-4.08 215.34-5.93 213.83-7.79 212.89-10.41 211.95-13.04 211.75-16.21L211.75-16.21ZM225.18-18.55L225.18-17.48Q225.18-8.89 228.45-8.89L228.45-8.89Q229.35-8.89 230.02-9.23 230.7-9.57 231.11-10.28 231.53-10.99 231.79-11.72 232.06-12.45 232.17-13.55 232.28-14.65 232.32-15.48 232.36-16.31 232.36-17.48L232.36-17.48 232.36-18.36Q232.36-19.63 232.21-20.8 232.06-21.97 231.71-23.16 231.35-24.34 230.62-25.06 229.89-25.78 228.84-25.78L228.84-25.78Q225.18-25.78 225.18-18.55L225.18-18.55ZM249-0.98L249-33.59 253.54-33.59Q255.64-33.59 260.26-33.69 264.87-33.79 267.17-33.79L267.17-33.79Q269.15-33.79 270.87-33.57 272.59-33.35 274.26-32.76 275.93-32.18 277.12-31.27 278.3-30.37 279.03-28.89 279.77-27.42 279.77-25.49L279.77-25.49Q279.77-22.83 278.52-20.95 277.27-19.07 274.69-17.77L274.69-17.77Q275.71-17.33 276.47-16.63 277.23-15.92 277.63-15.41 278.03-14.89 278.41-13.68 278.79-12.48 278.86-12.1 278.94-11.72 279.18-10.23L279.18-10.23Q279.25-9.89 279.28-9.72L279.28-9.72Q279.37-8.74 280.11-6.14 280.84-3.54 280.84-2.15L280.84-2.15Q280.84-1.27 280.3-1.27L280.3-1.27Q278.84-1.27 275.87-1.25 272.9-1.22 271.46-1.22L271.46-1.22Q270.88-1.27 269.71-1.27L269.71-1.27 268.05-1.27Q267.56-1.42 267.09-2.78 266.63-4.15 266.44-5.86L266.44-5.86 265.9-10.21Q265.75-10.74 265.67-10.97 265.58-11.21 265.36-11.54 265.14-11.87 264.76-11.99 264.38-12.11 263.8-12.11L263.8-12.11 262.68-12.11 262.68-2.34Q262.68-2.27 262.68-2.11 262.68-1.95 262.68-1.89 262.68-1.83 262.68-1.71 262.68-1.59 262.65-1.53 262.63-1.46 262.6-1.37 262.58-1.27 262.54-1.23 262.5-1.2 262.44-1.14 262.38-1.07 262.3-1.05 262.21-1.03 262.1-1 261.99-0.98 261.85-0.98L261.85-0.98 249-0.98ZM262.82-20.7L262.82-20.7Q262.87-20.65 262.97-20.5 263.07-20.34 263.16-20.24 263.26-20.14 263.36-20.12L263.36-20.12Q264.09-20.12 264.82-20.28 265.56-20.43 266.33-20.8 267.09-21.17 267.57-21.92 268.05-22.68 268.05-23.73L268.05-23.73Q268.05-26.27 263.16-26.27L263.16-26.27Q262.68-26.15 262.68-25.88L262.68-25.88 262.68-24.95Q262.68-24.24 262.75-22.83 262.82-21.41 262.82-20.7ZM296.41-33.69L309.33-33.69 313.16-21.63Q315.01-26.59 316.63-31.54L316.63-31.54Q316.67-31.74 316.92-32.28 317.16-32.81 317.21-33.15L317.21-33.15Q317.41-33.74 319.85-33.74L319.85-33.74Q320.02-33.74 320.32-33.72 320.63-33.69 320.82-33.69L320.82-33.69Q324.8-33.74 329.42-33.79L329.42-33.79Q330-33.72 330.25-32.59L330.25-32.59 319.16-12.52 319.56-10.89Q319.56-9.47 319.6-6.57 319.65-3.66 319.65-2.54L319.65-2.54 319.65-1.81Q319.56-1.46 319.27-1.25 318.99-1.03 318.49-0.96 317.99-0.9 317.61-0.89 317.24-0.88 316.54-0.9 315.84-0.93 315.6-0.93L315.6-0.93 306.27-0.93 305.49-1.95 305.49-12.16 299.85-24.19 297.24-27.86Q295.24-31.86 295.24-33.01L295.24-33.01Q295.24-33.69 296.41-33.69L296.41-33.69ZM329.86-16.21L329.86-17.68 329.81-18.21Q330.27-22.19 330.69-23.75L330.69-23.75Q331.64-27.42 334.1-29.88L334.1-29.88 334.69-30.47Q335.86-31.84 338.25-32.81L338.25-32.81 339.18-32.81Q341.57-33.81 347.04-34.67L347.04-34.67Q348.41-34.67 349.91-34.46 351.41-34.25 353.24-33.78 355.08-33.3 356.77-32.26 358.47-31.23 359.59-29.79L359.59-29.79 359.59-29.1Q363.6-24.1 363.6-17.87L363.6-17.87Q363.6-10.86 360.37-6.45L360.37-6.45 359.4-5.22Q358.27-3.83 356.6-2.83 354.93-1.83 353.05-1.31 351.17-0.78 349.45-0.56 347.73-0.34 346.02-0.34L346.02-0.34Q343.5-0.34 341.22-0.94 338.94-1.54 336.95-2.81 334.96-4.08 333.44-5.93 331.93-7.79 330.99-10.41 330.05-13.04 329.86-16.21L329.86-16.21ZM343.28-18.55L343.28-17.48Q343.28-8.89 346.55-8.89L346.55-8.89Q347.46-8.89 348.13-9.23 348.8-9.57 349.22-10.28 349.63-10.99 349.9-11.72 350.17-12.45 350.28-13.55 350.39-14.65 350.42-15.48 350.46-16.31 350.46-17.48L350.46-17.48 350.46-18.36Q350.46-19.63 350.31-20.8 350.17-21.97 349.81-23.16 349.46-24.34 348.73-25.06 347.99-25.78 346.95-25.78L346.95-25.78Q343.28-25.78 343.28-18.55L343.28-18.55ZM366.91-27.93L366.91-27.88Q366.82-28.37 366.82-30.66L366.82-30.66Q366.82-33.3 367.3-33.79L367.3-33.79 380.59-33.79 380.59-13.28Q380.59-10.11 382.44-10.11L382.44-10.11Q383.22-10.11 383.73-10.8 384.25-11.5 384.25-12.45L384.25-12.45 384.25-16.06Q384.39-26.76 384.39-26.86L384.39-26.86Q384.39-31.1 384.3-33.01L384.3-33.01Q384.3-33.69 384.98-33.98L384.98-33.98 398.55-33.98 398.55-30.18Q398.24-20.92 398.16-18.26L398.16-18.26 398.16-16.75Q398.16-16.46 398.14-15.97 398.11-15.48 398.11-15.28L398.11-15.28Q398.11-14.45 398.16-14.11L398.16-14.11 398.16-12.21Q398.16-8.81 397.48-7.32L397.48-7.32 397.48-7.23Q396.7-5.4 395.23-4.06 393.77-2.73 391.89-1.99 390.01-1.25 388.03-0.92 386.05-0.59 383.86-0.59L383.86-0.59Q383.17-0.59 382.83-0.73L382.83-0.73 382.25-0.73Q382.25-0.49 381.51-0.49L381.51-0.49 381.51-0.44Q380.98-0.42 378.39-0.68L378.39-0.68 377.26-0.68Q375.73-0.85 374.3-1.37 372.87-1.88 371.53-2.82 370.18-3.76 369.17-5.05 368.16-6.35 367.52-8.2 366.89-10.06 366.82-12.26L366.82-12.26Q366.84-13.53 366.83-15.77 366.82-18.02 366.84-19.86 366.86-21.7 366.96-23.44L366.96-23.44 366.96-24.12Q366.96-24.24 366.99-24.51 367.01-24.78 367.01-24.9L367.01-24.9Q367.01-25.27 366.96-26 366.91-26.73 366.91-27.1L366.91-27.1 366.91-27.93Z" opacity="1" transform="matrix(1,0,0,1,0,0)" fill="#ffdc00" class="slogan-text-1" data-fill-palette-color="secondary" id="text-1"></path></svg></g></svg></g></svg></g></svg></g><g><svg viewBox="0 0 228.9871188004158 228.9871188004158" height="228.9871188004158" width="228.9871188004158"><g><svg></svg></g><g id="icon-0"><svg viewBox="0 0 228.9871188004158 228.9871188004158" height="228.9871188004158" width="228.9871188004158"><g><path d="M0 114.494c0-63.233 51.261-114.494 114.494-114.494 63.233 0 114.494 51.261 114.493 114.494 0 63.233-51.261 114.494-114.493 114.493-63.233 0-114.494-51.261-114.494-114.493zM114.494 223.259c60.07 0 108.766-48.696 108.765-108.765 0-60.07-48.696-108.766-108.765-108.766-60.07 0-108.766 48.696-108.766 108.766 0 60.07 48.696 108.766 108.766 108.765z" data-fill-palette-color="accent" fill="#bb84e8" stroke="transparent"></path></g><g transform="matrix(1,0,0,1,46.71687158718156,46.71715216578548)"><svg viewBox="0 0 135.55337562605268 135.55281446884484" height="135.55281446884484" width="135.55337562605268"><g><svg xmlns="http://www.w3.org/2000/svg" xmlns:xlink="http://www.w3.org/1999/xlink" version="1.0" x="0" y="0" viewBox="4.667734146118164 4.6859588623046875 90.3050308227539 90.30465698242188" enable-background="new 0 0 100 100" xml:space="preserve" height="135.55281446884484" width="135.55337562605268" class="icon-s-0" data-fill-palette-color="accent" id="s-0"><path d="M17.504 35.743c-1.334 8.611 0.522 17.134 5.093 23.382 3.514 4.801 8.413 7.905 13.796 8.739 5.677 0.88 11.253-0.429 15.703-3.685 1.248-0.912 2.36-1.946 3.326-3.076-2.222 0.978-4.814 1.267-7.626 0.831-11.717-1.816-19.673-13.464-17.735-25.964 0.934-6.03 4.384-11.497 9.713-15.397 6.768-4.952 15.953-6.97 25.201-5.537 7.474 1.158 17.67 5.964 25.56 15.213 0 0-22.835-39.421-56.115-20.356C23.689 16.04 18.653 28.323 17.504 35.743z" fill="#bb84e8" data-fill-palette-color="accent"></path><path d="M82.544 65.256c1.659-8.555 0.125-17.141-4.207-23.557-3.331-4.931-8.109-8.217-13.457-9.253-5.639-1.094-11.261 0.004-15.83 3.091-1.282 0.863-2.431 1.854-3.44 2.947 2.257-0.894 4.859-1.084 7.652-0.543 11.64 2.257 19.151 14.196 16.744 26.616-1.161 5.989-4.815 11.324-10.288 15.019-6.949 4.692-16.205 6.364-25.393 4.582C26.902 82.719 16.894 77.532 9.358 67.992c0 0 21.331 40.255 55.307 22.457C75.621 84.712 81.115 72.628 82.544 65.256z" fill="#bb84e8" data-fill-palette-color="accent"></path><path d="M35.726 82.88c8.611 1.334 17.133-0.522 23.381-5.094 4.801-3.514 7.905-8.413 8.74-13.796 0.879-5.676-0.429-11.253-3.686-15.702-0.912-1.248-1.946-2.36-3.076-3.327 0.979 2.222 1.267 4.815 0.831 7.626-1.816 11.717-13.463 19.673-25.965 17.736-6.029-0.934-11.497-4.385-15.395-9.713-4.952-6.768-6.971-15.954-5.538-25.202 1.158-7.474 5.964-17.67 15.213-25.559 0 0-39.421 22.835-20.356 56.115C16.022 76.695 28.305 81.73 35.726 82.88z" fill="#bb84e8" data-fill-palette-color="accent"></path><path d="M90.432 35.718c-5.738-10.955-17.822-16.45-25.194-17.879-8.554-1.659-17.141-0.125-23.557 4.208-4.931 3.331-8.217 8.108-9.254 13.456-1.094 5.64 0.004 11.261 3.092 15.83 0.863 1.282 1.854 2.431 2.946 3.441-0.894-2.257-1.084-4.859-0.542-7.652 2.257-11.64 14.196-19.151 26.615-16.744 5.99 1.161 11.324 4.816 15.019 10.289 4.693 6.949 6.363 16.204 4.583 25.392-1.44 7.423-6.626 17.431-16.167 24.966C67.973 91.025 108.228 69.694 90.432 35.718z" fill="#bb84e8" data-fill-palette-color="accent"></path></svg></g></svg></g></svg></g></svg></g></svg></g><defs></defs></svg><rect width="395.52" height="138.3799694852527" fill="none" stroke="none" visibility="hidden"></rect></g></svg></g></svg>